<svg width="18" height="18" viewBox="0 0 18 18" fill="none" xmlns="http://www.w3.org/2000/svg">
<path fill-rule="evenodd" clip-rule="evenodd" d="M3.142 2.017C3.35298 1.80603 3.63913 1.6875 3.9375 1.6875H10.6875C10.8367 1.6875 10.9798 1.74676 11.0852 1.85225L15.0227 5.78975C15.1282 5.89524 15.1875 6.03832 15.1875 6.1875V15.1875C15.1875 15.4859 15.069 15.772 14.858 15.983C14.647 16.194 14.3609 16.3125 14.0625 16.3125H3.9375C3.63913 16.3125 3.35298 16.194 3.142 15.983C2.93103 15.772 2.8125 15.4859 2.8125 15.1875V2.8125C2.8125 2.51413 2.93103 2.22798 3.142 2.017ZM10.4545 2.8125L3.9375 2.8125L3.9375 15.1875H14.0625V6.4205L10.4545 2.8125Z" />
<path fill-rule="evenodd" clip-rule="evenodd" d="M10.6875 1.6875C10.9982 1.6875 11.25 1.93934 11.25 2.25V5.625H14.625C14.9357 5.625 15.1875 5.87684 15.1875 6.1875C15.1875 6.49816 14.9357 6.75 14.625 6.75H10.6875C10.3768 6.75 10.125 6.49816 10.125 6.1875V2.25C10.125 1.93934 10.3768 1.6875 10.6875 1.6875Z" />
<path fill-rule="evenodd" clip-rule="evenodd" d="M6.6335 10.571C6.85317 10.3513 7.20933 10.3513 7.429 10.571L9 12.142L10.571 10.571C10.7907 10.3513 11.1468 10.3513 11.3665 10.571C11.5862 10.7907 11.5862 11.1468 11.3665 11.3665L9.39775 13.3352C9.17808 13.5549 8.82192 13.5549 8.60225 13.3352L6.6335 11.3665C6.41383 11.1468 6.41383 10.7907 6.6335 10.571Z" />
<path fill-rule="evenodd" clip-rule="evenodd" d="M9 7.875C9.31066 7.875 9.5625 8.12684 9.5625 8.4375V12.9375C9.5625 13.2482 9.31066 13.5 9 13.5C8.68934 13.5 8.4375 13.2482 8.4375 12.9375V8.4375C8.4375 8.12684 8.68934 7.875 9 7.875Z" />
</svg>
