<svg width="17" height="16" viewBox="0 0 17 16" fill="none" xmlns="http://www.w3.org/2000/svg">
<path fill-rule="evenodd" clip-rule="evenodd" d="M7.84334 0.32745C8.03602 0.192504 8.26556 0.120117 8.5008 0.120117C8.73604 0.120117 8.96558 0.192504 9.15826 0.32745C9.34833 0.460566 9.49346 0.648196 9.57455 0.86546L11.1189 4.75442L11.1235 4.76644C11.1249 4.77028 11.1275 4.77363 11.1307 4.77607C11.134 4.7785 11.138 4.77993 11.1421 4.78017L11.1455 4.78037L15.294 5.04757C16.3709 5.11749 16.7389 6.46553 15.9551 7.11705C15.955 7.11717 15.9549 7.11729 15.9547 7.11741L12.7775 9.76743L12.7757 9.76897C12.7685 9.77488 12.7632 9.78268 12.7603 9.79149C12.7574 9.80007 12.757 9.80925 12.7591 9.81804C12.7591 9.81827 12.7592 9.81851 12.7592 9.81875L13.785 13.8515C14.0334 14.8319 12.9748 15.7148 12.0538 15.1339L12.0524 15.133L8.50867 12.883C8.50642 12.8816 8.50347 12.8806 8.5008 12.8806C8.49813 12.8806 8.49551 12.8814 8.49325 12.8828L8.49237 12.8833L5.19576 14.971C5.19559 14.9711 5.19542 14.9712 5.19525 14.9713C4.185 15.6136 3.01817 14.6371 3.29396 13.5561C3.29392 13.5563 3.29401 13.5559 3.29396 13.5561L4.24236 9.81875C4.24241 9.81854 4.24246 9.81832 4.24251 9.81811C4.24457 9.8093 4.24417 9.80009 4.24133 9.79149C4.23843 9.78268 4.2331 9.77488 4.22595 9.76897L4.2241 9.76743L1.04689 7.11741C1.04674 7.11728 1.04659 7.11716 1.04644 7.11703C0.26271 6.46551 0.630443 5.11751 1.70732 5.04759L5.85953 4.78015C5.86363 4.77992 5.86756 4.7785 5.87085 4.77607C5.87415 4.77363 5.87666 4.77028 5.87809 4.76644L5.8827 4.75442L7.42705 0.86546C7.50814 0.648198 7.65327 0.460566 7.84334 0.32745ZM9.112 11.9335C9.1119 11.9334 9.11211 11.9335 9.112 11.9335L12.654 14.1824C12.6539 14.1823 12.6542 14.1825 12.654 14.1824C12.6604 14.1864 12.6646 14.1879 12.6658 14.1883C12.6673 14.188 12.6721 14.1866 12.6788 14.1816C12.6873 14.1751 12.6928 14.1671 12.6952 14.1605C12.6963 14.1575 12.6971 14.1543 12.6973 14.1503C12.6975 14.1465 12.6974 14.1394 12.6946 14.1284C12.6946 14.1283 12.6946 14.1284 12.6946 14.1284L11.6673 10.0897C11.6141 9.87494 11.6225 9.64952 11.6918 9.43938C11.7609 9.22967 11.8877 9.04369 12.0577 8.90281C12.0581 8.90252 12.0584 8.90224 12.0588 8.90196L15.236 6.25196C15.2425 6.24649 15.2453 6.24258 15.2465 6.2407C15.2478 6.23863 15.2489 6.23621 15.2498 6.23288C15.2518 6.22529 15.2525 6.21221 15.2478 6.1971C15.2432 6.18203 15.2362 6.17471 15.2342 6.17298C15.2335 6.17241 15.2333 6.17231 15.2331 6.17222C15.233 6.17219 15.2298 6.17078 15.2216 6.17023C15.2215 6.17023 15.2216 6.17024 15.2216 6.17023L11.0767 5.90327C11.0761 5.90323 11.0754 5.90319 11.0747 5.90315C10.8531 5.88987 10.6402 5.81253 10.4617 5.68051C10.2847 5.54958 10.1492 5.37048 10.0714 5.16467L8.52645 1.27432C8.52443 1.26924 8.52249 1.26414 8.52062 1.259C8.51914 1.25493 8.51645 1.25142 8.5129 1.24893C8.50935 1.24645 8.50513 1.24512 8.5008 1.24512C8.49647 1.24512 8.49225 1.24645 8.4887 1.24893C8.48515 1.25142 8.48246 1.25493 8.48098 1.259C8.47911 1.26414 8.47717 1.26924 8.47515 1.27432L6.93025 5.16467C6.85238 5.37048 6.71688 5.54958 6.53989 5.68051C6.36142 5.81253 6.14846 5.88987 5.92689 5.90315L1.78022 6.17022C1.78016 6.17022 1.78028 6.17022 1.78022 6.17022C1.77203 6.17077 1.76865 6.17218 1.76858 6.1722C1.76833 6.17231 1.76812 6.17237 1.7674 6.17298C1.76536 6.17471 1.75844 6.18203 1.75377 6.1971C1.7491 6.21221 1.7498 6.2253 1.7518 6.23288C1.75267 6.23622 1.7538 6.23863 1.7551 6.2407C1.75629 6.24258 1.75907 6.24649 1.76565 6.25196L1.76656 6.25272L4.94284 8.90196C4.94321 8.90227 4.94357 8.90257 4.94394 8.90288C5.1139 9.04376 5.24071 9.2297 5.30981 9.43938C5.37906 9.64952 5.38753 9.87494 5.33425 10.0897L5.33352 10.0926L4.38407 13.8341C4.36374 13.9136 4.39178 13.9753 4.44316 14.0143C4.46945 14.0343 4.49602 14.0429 4.51701 14.0444C4.53437 14.0456 4.5584 14.0431 4.59178 14.0218L7.8896 11.9335C7.88989 11.9333 7.89019 11.9331 7.89048 11.9329C8.07297 11.8171 8.28465 11.7556 8.5008 11.7556C8.71717 11.7556 8.92939 11.8174 9.112 11.9335Z" fill="white"/>
</svg>
