<svg width="24" height="24" viewBox="0 0 24 24" fill="none" xmlns="http://www.w3.org/2000/svg">
<path d="M4.5 3.75L19.5 20.25"  stroke-linecap="round" stroke-linejoin="round"/>
<path d="M14.5223 14.7747C13.7864 15.4436 12.8149 15.7928 11.8215 15.7454C10.8281 15.6981 9.89422 15.2581 9.22524 14.5222C8.55626 13.7863 8.20698 12.8149 8.25424 11.8215C8.3015 10.8281 8.74142 9.89414 9.47724 9.2251"  stroke-linecap="round" stroke-linejoin="round"/>
<path d="M6.6002 6C2.76881 8.07394 1.2002 11.9677 1.2002 11.9677C1.2002 11.9677 4.20747 19.1996 11.7257 19.1996C13.4872 19.2146 15.2267 18.7809 16.8002 17.9344"  stroke-linecap="round" stroke-linejoin="round"/>
<path d="M19.6777 15.5998C21.8466 13.7353 22.8006 11.6755 22.8006 11.6755C22.8006 11.6755 19.617 4.79982 11.6582 4.79982C10.9689 4.79874 10.2806 4.85253 9.60059 4.96063"  stroke-linecap="round" stroke-linejoin="round"/>
<path d="M12.7061 8.31641C13.5031 8.46945 14.229 8.8768 14.775 9.47735C15.3209 10.0779 15.6574 10.8393 15.734 11.6472"  stroke-linecap="round" stroke-linejoin="round"/>
</svg>
