<svg fill="none" xmlns="http://www.w3.org/2000/svg">
<path fill-rule="evenodd" clip-rule="evenodd" d="M10.4062 3.375C10.4062 2.75368 10.9099 2.25 11.5312 2.25H14.0625C14.6838 2.25 15.1875 2.75368 15.1875 3.375V14.625C15.1875 15.2463 14.6838 15.75 14.0625 15.75H11.5312C10.9099 15.75 10.4062 15.2463 10.4062 14.625V3.375Z" />
<path fill-rule="evenodd" clip-rule="evenodd" d="M2.8125 3.375C2.8125 2.75368 3.31618 2.25 3.9375 2.25H6.46875C7.09007 2.25 7.59375 2.75368 7.59375 3.375V14.625C7.59375 15.2463 7.09007 15.75 6.46875 15.75H3.9375C3.31618 15.75 2.8125 15.2463 2.8125 14.625V3.375Z" />
</svg>
