<svg width="18" height="18" viewBox="0 0 18 18" fill="none" xmlns="http://www.w3.org/2000/svg">
<path fill-rule="evenodd" clip-rule="evenodd" d="M11.9773 3.53975C12.1969 3.32008 12.5531 3.32008 12.7727 3.53975L16.1477 6.91475C16.3674 7.13442 16.3674 7.49058 16.1477 7.71025L12.7727 11.0852C12.5531 11.3049 12.1969 11.3049 11.9773 11.0852C11.7576 10.8656 11.7576 10.5094 11.9773 10.2898L14.9545 7.3125L11.9773 4.33525C11.7576 4.11558 11.7576 3.75942 11.9773 3.53975Z" />
<path fill-rule="evenodd" clip-rule="evenodd" d="M2.25 5.625C2.56066 5.625 2.8125 5.87684 2.8125 6.1875V14.625H13.5C13.8107 14.625 14.0625 14.8768 14.0625 15.1875C14.0625 15.4982 13.8107 15.75 13.5 15.75H2.8125C2.51413 15.75 2.22798 15.6315 2.017 15.4205C1.80603 15.2095 1.6875 14.9234 1.6875 14.625V6.1875C1.6875 5.87684 1.93934 5.625 2.25 5.625Z" />
<path fill-rule="evenodd" clip-rule="evenodd" d="M11.8126 6.75H15.7501C16.0608 6.75 16.3126 7.00184 16.3126 7.3125C16.3126 7.62316 16.0608 7.875 15.7501 7.875H11.8128C11.8127 7.875 11.8129 7.875 11.8128 7.875C10.4407 7.87545 9.10748 8.33142 8.02255 9.17137C6.93758 10.0113 6.1622 11.1878 5.8181 12.5161C5.74019 12.8168 5.43324 12.9974 5.13251 12.9195C4.83178 12.8416 4.65114 12.5347 4.72905 12.2339C5.13564 10.6644 6.05184 9.27433 7.33386 8.2818C8.61587 7.28928 10.1913 6.75049 11.8126 6.75Z" />
</svg>
