<svg width="18" height="18" viewBox="0 0 18 18" fill="none" xmlns="http://www.w3.org/2000/svg">
<path fill-rule="evenodd" clip-rule="evenodd" d="M13.5 9.5625C13.5 9.25184 13.7518 9 14.0625 9H17.4375C17.7482 9 18 9.25184 18 9.5625C18 9.87316 17.7482 10.125 17.4375 10.125H14.0625C13.7518 10.125 13.5 9.87316 13.5 9.5625Z" />
<path fill-rule="evenodd" clip-rule="evenodd" d="M15.75 7.3125C16.0607 7.3125 16.3125 7.56434 16.3125 7.875V11.25C16.3125 11.5607 16.0607 11.8125 15.75 11.8125C15.4393 11.8125 15.1875 11.5607 15.1875 11.25V7.875C15.1875 7.56434 15.4393 7.3125 15.75 7.3125Z" />
<path fill-rule="evenodd" clip-rule="evenodd" d="M7.59375 3.375C5.57446 3.375 3.9375 5.01196 3.9375 7.03125C3.9375 9.05054 5.57446 10.6875 7.59375 10.6875C9.61304 10.6875 11.25 9.05054 11.25 7.03125C11.25 5.01196 9.61304 3.375 7.59375 3.375ZM2.8125 7.03125C2.8125 4.39064 4.95314 2.25 7.59375 2.25C10.2344 2.25 12.375 4.39064 12.375 7.03125C12.375 9.67186 10.2344 11.8125 7.59375 11.8125C4.95314 11.8125 2.8125 9.67186 2.8125 7.03125Z" />
<path fill-rule="evenodd" clip-rule="evenodd" d="M7.59337 11.8115C6.52552 11.8115 5.47063 12.0454 4.50284 12.4967C3.53505 12.948 2.67784 13.6058 1.99148 14.4239C1.7918 14.6619 1.437 14.6929 1.19901 14.4932C0.961022 14.2936 0.929966 13.9388 1.12964 13.7008C1.92161 12.7569 2.91069 11.9979 4.02737 11.4771C5.14405 10.9564 6.36124 10.6865 7.59337 10.6865C8.82551 10.6865 10.0427 10.9564 11.1594 11.4771C12.2761 11.9979 13.2651 12.7569 14.0571 13.7008C14.2568 13.9388 14.2257 14.2936 13.9877 14.4932C13.7497 14.6929 13.3949 14.6619 13.1953 14.4239C12.5089 13.6058 11.6517 12.948 10.6839 12.4967C9.71612 12.0454 8.66122 11.8115 7.59337 11.8115Z" />
</svg>
