<svg width="14" height="14" viewBox="0 0 14 14" fill="none" xmlns="http://www.w3.org/2000/svg">
<path fill-rule="evenodd" clip-rule="evenodd" d="M9.92086 3.72848C10.0966 3.55275 10.3815 3.55275 10.5573 3.72848L13.5104 6.68161C13.6861 6.85734 13.6861 7.14227 13.5104 7.318L10.5573 10.2711C10.3815 10.4469 10.0966 10.4469 9.92086 10.2711C9.74513 10.0954 9.74513 9.81047 9.92086 9.63473L12.5558 6.9998L9.92086 4.36488C9.74513 4.18914 9.74513 3.90422 9.92086 3.72848Z" />
<path fill-rule="evenodd" clip-rule="evenodd" d="M4.86328 6.9998C4.86328 6.75128 5.06475 6.5498 5.31328 6.5498H13.1883C13.4368 6.5498 13.6383 6.75128 13.6383 6.9998C13.6383 7.24833 13.4368 7.4498 13.1883 7.4498H5.31328C5.06475 7.4498 4.86328 7.24833 4.86328 6.9998Z" />
<path fill-rule="evenodd" clip-rule="evenodd" d="M1.37578 1.2623C1.34594 1.2623 1.31733 1.27416 1.29623 1.29526C1.27513 1.31635 1.26328 1.34497 1.26328 1.3748V12.6248C1.26328 12.6546 1.27513 12.6833 1.29623 12.7044C1.31733 12.7255 1.34594 12.7373 1.37578 12.7373H6.43828C6.68681 12.7373 6.88828 12.9388 6.88828 13.1873C6.88828 13.4358 6.68681 13.6373 6.43828 13.6373H1.37578C1.10725 13.6373 0.849717 13.5306 0.659836 13.3408C0.469955 13.1509 0.363281 12.8933 0.363281 12.6248V1.3748C0.363281 1.10627 0.469955 0.84874 0.659836 0.658859C0.849716 0.468979 1.10725 0.362305 1.37578 0.362305H6.43828C6.68681 0.362305 6.88828 0.563777 6.88828 0.812305C6.88828 1.06083 6.68681 1.2623 6.43828 1.2623H1.37578Z" />
</svg>
