<svg width="24" height="24" viewBox="0 0 24 24" fill="none" xmlns="http://www.w3.org/2000/svg">
<path fill-rule="evenodd" clip-rule="evenodd" d="M14.5795 2.32627C14.8368 2.45212 15 2.71356 15 3.00001V21C15 21.2865 14.8368 21.5479 14.5795 21.6737C14.3222 21.7996 14.0157 21.7679 13.7895 21.592L7.24267 16.5H3C2.60218 16.5 2.22065 16.342 1.93934 16.0607C1.65803 15.7794 1.5 15.3978 1.5 15V9.00001C1.5 8.60218 1.65804 8.22065 1.93934 7.93935C2.22064 7.65804 2.60217 7.50001 3 7.50001H7.24267L13.7895 2.40799C14.0157 2.23213 14.3222 2.20042 14.5795 2.32627ZM13.5 4.53349L7.96046 8.84202C7.82881 8.94441 7.66678 9.00001 7.5 9.00001H3V15H7.5C7.66678 15 7.82881 15.0556 7.96046 15.158L13.5 19.4665V4.53349Z"/>
<path fill-rule="evenodd" clip-rule="evenodd" d="M7.5 7.5C7.91421 7.5 8.25 7.83579 8.25 8.25V15.75C8.25 16.1642 7.91421 16.5 7.5 16.5C7.08579 16.5 6.75 16.1642 6.75 15.75V8.25C6.75 7.83579 7.08579 7.5 7.5 7.5Z"/>
<path fill-rule="evenodd" clip-rule="evenodd" d="M17.3378 9.35204C17.6301 9.05858 18.105 9.05767 18.3984 9.35C18.7473 9.69753 19.0241 10.1105 19.213 10.5653C19.4019 11.0201 19.4991 11.5077 19.4991 12.0001C19.4991 12.4925 19.4019 12.9801 19.213 13.4349C19.0241 13.8897 18.7473 14.3027 18.3984 14.6502C18.105 14.9425 17.6301 14.9416 17.3378 14.6482C17.0455 14.3547 17.0464 13.8798 17.3398 13.5875C17.5488 13.3793 17.7146 13.1319 17.8278 12.8595C17.9409 12.5871 17.9991 12.2951 17.9991 12.0001C17.9991 11.7051 17.9409 11.4131 17.8278 11.1407C17.7146 10.8683 17.5488 10.6209 17.3398 10.4127C17.0464 10.1204 17.0455 9.64549 17.3378 9.35204Z" />
</svg>
