<svg width="24" height="24" viewBox="0 0 24 24" fill="none" xmlns="http://www.w3.org/2000/svg">
<path fill-rule="evenodd" clip-rule="evenodd" d="M11.1238 1.77058C11.3807 1.59066 11.6868 1.49414 12.0004 1.49414C12.3141 1.49414 12.6201 1.59066 12.877 1.77058C13.1305 1.94807 13.324 2.19825 13.4321 2.48793L15.4912 7.67322L15.4974 7.68924C15.4993 7.69436 15.5026 7.69882 15.507 7.70207C15.5114 7.70532 15.5166 7.70722 15.5221 7.70754L15.5267 7.70781L21.058 8.06407C22.4938 8.15731 22.9845 9.95469 21.9395 10.8234L21.939 10.8239L17.7027 14.3572L17.7002 14.3593C17.6907 14.3672 17.6836 14.3776 17.6797 14.3893C17.6759 14.4007 17.6754 14.413 17.6781 14.4247L17.6783 14.4257L19.046 19.8026C19.3772 21.1098 17.9657 22.287 16.7378 21.5125L16.7359 21.5113L12.0109 18.5113C12.0079 18.5094 12.004 18.5081 12.0004 18.5081C11.9969 18.5081 11.9934 18.5091 11.9904 18.511L11.9892 18.5118L7.5937 21.2953L7.59301 21.2957C6.24601 22.1521 4.69024 20.8501 5.05797 19.4088L6.32249 14.4257L6.3227 14.4248C6.32544 14.4131 6.3249 14.4008 6.32112 14.3893C6.31725 14.3776 6.31014 14.3672 6.30062 14.3593L6.29815 14.3572L2.06187 10.8239L2.06126 10.8234C1.0163 9.95466 1.50661 8.15734 2.94244 8.0641L8.47873 7.70752C8.48418 7.70721 8.48943 7.70532 8.49382 7.70207C8.49821 7.69882 8.50156 7.69436 8.50346 7.68924L8.50962 7.67322L10.5688 2.48793C10.6769 2.19825 10.8704 1.94807 11.1238 1.77058Z"/>
</svg>
