<?xml version="1.0" standalone="no"?>
<!DOCTYPE svg PUBLIC "-//W3C//DTD SVG 20010904//EN"
 "http://www.w3.org/TR/2001/REC-SVG-20010904/DTD/svg10.dtd">
<svg version="1.0" xmlns="http://www.w3.org/2000/svg"
 width="500.000000pt" height="500.000000pt" viewBox="0 0 500.000000 500.000000"
 preserveAspectRatio="xMidYMid meet">
<metadata>
Created by potrace 1.14, written by Peter Selinger 2001-2017
</metadata>
<g transform="translate(0.000000,500.000000) scale(0.100000,-0.100000)"
fill="#000000" stroke="none">
<path d="M0 2500 l0 -2500 2500 0 2500 0 0 2500 0 2500 -2500 0 -2500 0 0
-2500z m2730 1246 c58 -14 146 -37 195 -51 162 -46 231 -36 277 41 19 33 22
34 84 34 l64 0 0 -385 0 -385 -71 0 -70 0 -20 48 c-53 123 -113 232 -159 289
-93 115 -241 213 -375 248 -88 24 -235 22 -307 -4 -194 -68 -278 -238 -197
-400 59 -119 208 -220 485 -330 385 -154 570 -266 695 -421 92 -115 139 -256
139 -417 -2 -414 -269 -713 -704 -788 -49 -8 -127 -15 -174 -15 -156 0 -413
48 -615 114 -169 56 -204 48 -273 -60 l-34 -53 -70 0 -70 0 0 440 0 439 79 0
79 0 28 -82 c141 -428 416 -638 804 -615 104 6 170 25 242 70 100 61 148 148
148 266 0 177 -145 300 -545 460 -485 196 -718 381 -798 636 -17 55 -21 95
-21 185 -1 136 16 207 76 330 34 69 59 102 133 175 136 135 291 214 496 250
127 22 344 13 479 -19z"/>
</g>
</svg>
