<svg width="1531" height="386" viewBox="0 0 1531 386" fill="none" xmlns="http://www.w3.org/2000/svg">
<path d="M164.05 138.956C155.584 116.828 149.369 107.051 137.5 96.7591C125.068 85.9525 110.387 80.2919 95.1426 80.2919C73.6829 80.2919 57.8764 93.1569 57.8764 110.139C57.8764 127.12 73.6829 141.015 112.102 155.423C168.578 177.037 190.038 199.164 190.038 235.701C190.038 282.015 154.459 313.92 103.074 313.92C87.2675 313.92 58.467 308.26 42.0698 302.084C36.4166 300.026 31.9165 298.997 29.0759 298.997C23.9852 298.997 20.6101 302.599 14.3944 313.406H0.275391V228.497H16.0819C27.9509 273.267 53.9107 296.424 93.4551 296.424C118.88 296.424 135.812 283.044 135.812 262.975C135.812 246.508 120.568 233.643 81.5861 218.205C24.5477 196.077 1.40041 172.405 1.40041 138.442C1.40041 95.2152 38.6667 63.3101 90.0519 63.3101C103.046 63.3101 116.04 65.3685 134.096 71.0291C143.125 73.6021 148.215 74.6313 151.59 74.6313C158.931 74.6313 162.334 72.0583 165.709 64.3393H178.141V138.956H164.022H164.05Z" fill="#191919"/>
<path d="M421.961 313.891C358.679 313.891 308.053 262.431 308.053 189.358C308.053 116.285 357.16 63.2812 423.986 63.2812C490.812 63.2812 536.375 115.77 536.375 188.844C536.375 261.917 487.268 313.891 421.961 313.891ZM424.07 297.91C454.952 297.281 463.53 269.836 461.843 181.868C460.408 107.28 449.214 78.6621 419.851 79.2624C390.488 79.8342 380.898 106.794 382.36 183.469C384.048 271.437 394.201 298.511 424.07 297.939V297.91Z" fill="#191919"/>
<path d="M629.752 111.682C653.546 76.6897 672.784 63.3101 698.097 63.3101C721.891 63.3101 739.103 80.2919 739.103 103.963C739.103 124.547 725.941 138.956 707.209 138.956C694.046 138.956 685.44 133.81 676.834 119.401C671.265 110.139 666.708 107.566 662.658 107.566C644.939 107.566 631.777 130.723 631.777 161.084V252.168C631.777 285.103 637.346 292.307 668.227 294.365V306.716H534.069V294.365C556.344 290.249 561.407 284.588 561.407 263.489V114.77C561.407 90.5839 555.332 84.9233 533.562 81.8357V69.4853H629.752V111.682Z" fill="#191919"/>
<path d="M978.518 81.8357C962.824 83.8941 956.243 88.011 948.142 110.139L884.213 284.874C866.494 333.246 853.978 356.117 843.347 367.953C832.716 379.274 818.034 384.935 800.821 384.935C771.965 384.935 751.714 368.468 751.714 344.282C751.714 324.727 763.864 309.803 783.102 309.803C800.315 309.803 813.478 321.639 813.478 336.563C813.478 338.621 812.971 341.194 812.465 343.767C811.959 345.311 811.959 346.855 811.959 346.855C811.959 351.486 816.009 355.603 820.565 355.603C832.716 355.603 845.372 339.136 853.978 313.406L793.734 164.172C783.608 138.442 764.371 95.2153 759.814 89.0401C756.777 84.9233 753.739 83.3795 742.602 81.8357V69.4854H868.66V81.8357L860.56 82.3503C847.903 83.3795 842.334 87.4963 842.334 95.2153C842.334 97.2737 846.891 110.653 852.46 125.062L888.91 220.778L923.336 124.033C927.892 110.653 928.905 104.993 928.905 98.8176C928.905 86.4672 923.336 82.8649 901.567 81.8357V69.4854H978.518V81.8357Z" fill="#191919"/>
<path d="M1530.48 255.77C1509.72 297.968 1489.47 313.92 1455.55 313.92C1421.64 313.92 1398.85 293.336 1398.85 258.858V70.5145C1429.03 53.7042 1445.91 34.6354 1456.57 0.729004H1469.22V70.5145H1517.32L1497.6 95.9586H1469.22V246.508C1469.22 267.092 1474.79 277.384 1488.97 277.384C1499.6 277.384 1507.7 269.665 1517.82 250.11L1530.48 255.77Z" fill="#191919"/>
<path d="M302.175 277.384C287.999 277.384 282.43 267.092 282.43 246.508V95.9591H313.819L333.478 70.515H282.43V0.729492H269.774C259.396 31.291 238.723 53.1043 212.061 65.5691V93.1574V258.859C212.061 293.337 233.83 313.921 268.761 313.921C291.993 313.921 308.812 306.43 323.775 288.162C319.978 283.502 315.787 279.042 312.159 274.64C309.009 276.498 305.746 277.384 302.203 277.384H302.175Z" fill="#191919"/>
<path d="M1173.6 266.577V132.266C1173.6 88.0108 1136.13 63.3101 1074.37 63.3101C1017.16 63.3101 977.676 86.9817 977.676 128.15C977.676 149.763 989.826 163.142 1010.58 163.142C1031.34 163.142 1045.01 149.763 1045.01 132.266C1045.01 125.062 1041.97 118.887 1035.39 110.653C1030.83 105.507 1029.82 101.905 1029.82 98.8175C1029.82 86.4671 1044.5 79.7773 1062.73 79.7773C1092.6 79.7773 1103.73 94.7007 1103.73 127.635V162.628C1045.01 179.61 1021.21 188.872 1001.98 201.737C979.194 217.175 968.057 236.73 968.057 259.373C968.057 297.453 991.345 313.92 1023.75 313.92C1053.11 313.92 1076.4 304.143 1104.24 278.413C1104.24 300.398 1123.28 307.745 1148.71 307.745C1161.48 307.745 1173.6 307.859 1173.6 307.859V266.577ZM1103.73 256.8C1092.6 272.752 1080.45 277.384 1068.3 277.384C1053.11 277.384 1041.97 265.548 1041.97 242.905C1041.97 213.059 1063.23 191.96 1103.73 180.639V256.8Z" fill="#191919"/>
<path d="M1338.13 64.3965C1312.82 64.3965 1293.58 77.7761 1269.79 112.769V70.5717H1173.6V82.9221C1195.37 86.0097 1201.44 91.6703 1201.44 115.856V307.802H1308.26V295.452C1277.38 293.393 1271.81 286.189 1271.81 253.255V162.17C1271.81 131.809 1284.97 108.652 1302.69 108.652C1306.74 108.652 1311.3 111.225 1316.87 120.488C1325.48 134.897 1334.08 140.043 1347.24 140.043C1365.98 140.043 1379.14 125.634 1379.14 105.05C1379.14 81.3783 1361.93 64.3965 1338.13 64.3965Z" fill="#191919"/>
</svg>
