<svg viewBox="0 0 195 46" fill="none" xmlns="http://www.w3.org/2000/svg">
<g clip-path="url(#clip0_401_11969)">
<path d="M20.7047 16.7726C19.703 14.143 18.9675 12.9811 17.5631 11.7581C16.0922 10.4739 14.355 9.80122 12.5513 9.80122C10.0121 9.80122 8.14177 11.33 8.14177 13.348C8.14177 15.3661 10.0121 17.0172 14.558 18.7294C21.2405 21.2978 23.7797 23.9274 23.7797 28.2692C23.7797 33.7729 19.5699 37.5643 13.4898 37.5643C11.6195 37.5643 8.21166 36.8916 6.27147 36.1578C5.60256 35.9132 5.07009 35.7909 4.73397 35.7909C4.13162 35.7909 3.73226 36.2189 2.99679 37.5031H1.32617V27.413H3.19647C4.60085 32.7333 7.67253 35.4851 12.3516 35.4851C15.36 35.4851 17.3635 33.8952 17.3635 31.5102C17.3635 29.5534 15.5597 28.0246 10.9472 26.19C4.19817 23.5605 1.45929 20.7475 1.45929 16.7114C1.45929 11.5746 5.86879 7.7832 11.9489 7.7832C13.4864 7.7832 15.0239 8.02781 17.1605 8.70049C18.2287 9.00625 18.8311 9.12855 19.2304 9.12855C20.099 9.12855 20.5017 8.82279 20.901 7.90551H22.372V16.7726H20.7014H20.7047Z" />
<path d="M51.2222 37.5614C43.7344 37.5614 37.7441 31.4461 37.7441 22.7625C37.7441 14.0789 43.5547 7.78027 51.4619 7.78027C59.369 7.78027 64.7603 14.0178 64.7603 22.7014C64.7603 31.385 58.9497 37.5614 51.2222 37.5614ZM51.4718 35.6623C55.1259 35.5875 56.1409 32.3261 55.9413 21.8724C55.7715 13.0088 54.447 9.60804 50.9727 9.67939C47.4983 9.74733 46.3635 12.951 46.5365 22.0627C46.7362 32.5163 47.9376 35.7336 51.4718 35.6656V35.6623Z" />
<path d="M75.8092 13.5315C78.6247 9.37316 80.901 7.7832 83.8961 7.7832C86.7115 7.7832 88.7482 9.80122 88.7482 12.6142C88.7482 15.0603 87.1908 16.7726 84.9744 16.7726C83.4169 16.7726 82.3986 16.161 81.3802 14.4488C80.7213 13.348 80.1821 13.0423 79.7029 13.0423C77.6063 13.0423 76.0489 15.7941 76.0489 19.4021V30.226C76.0489 34.1398 76.7078 34.9959 80.3619 35.2405V36.7082H64.4876V35.2405C67.1234 34.7513 67.7224 34.0786 67.7224 31.5714V13.8984C67.7224 11.0243 67.0036 10.3516 64.4277 9.98468V8.51703H75.8092V13.5315Z" />
<path d="M117.077 9.98523C115.22 10.2298 114.441 10.7191 113.483 13.3486L105.918 34.1131C103.822 39.8614 102.341 42.5793 101.083 43.9858C99.8248 45.3312 98.0876 46.0038 96.0509 46.0038C92.6365 46.0038 90.2404 44.047 90.2404 41.1728C90.2404 38.849 91.678 37.0756 93.9543 37.0756C95.991 37.0756 97.5485 38.4821 97.5485 40.2555C97.5485 40.5001 97.4886 40.8059 97.4287 41.1117C97.3688 41.2951 97.3688 41.4786 97.3688 41.4786C97.3688 42.0289 97.848 42.5182 98.3871 42.5182C99.8248 42.5182 101.322 40.5613 102.341 37.5037L95.2123 19.7696C94.0142 16.712 91.7379 11.5752 91.1988 10.8414C90.8394 10.3521 90.48 10.1687 89.1621 9.98523V8.51758H104.078V9.98523L103.119 10.0464C101.622 10.1687 100.963 10.6579 100.963 11.5752C100.963 11.8198 101.502 13.4097 102.161 15.122L106.474 26.4963L110.547 14.9997C111.086 13.4097 111.206 12.7371 111.206 12.0033C111.206 10.5356 110.547 10.1075 107.972 9.98523V8.51758H117.077V9.98523Z" />
<path d="M182.387 30.6544C179.931 35.6688 177.535 37.5646 173.522 37.5646C169.508 37.5646 166.812 35.1185 166.812 31.0213V8.63959C170.383 6.64195 172.38 4.37593 173.641 0.34668H175.139V8.63959H180.83L178.497 11.6632H175.139V29.5536C175.139 31.9997 175.798 33.2228 177.475 33.2228C178.733 33.2228 179.692 32.3055 180.89 29.9817L182.387 30.6544Z" />
<path d="M37.0484 33.2228C35.3711 33.2228 34.7122 31.9997 34.7122 29.5536V11.6632H38.4262L40.7524 8.63959H34.7122V0.34668H33.2147C31.9866 3.97844 29.5406 6.57061 26.3857 8.05185V11.3303V31.0213C26.3857 35.1185 28.9616 37.5646 33.0948 37.5646C35.8437 37.5646 37.8338 36.6745 39.6043 34.5036C39.155 33.9498 38.6591 33.4198 38.2298 32.8966C37.8571 33.1174 37.4711 33.2228 37.0518 33.2228H37.0484Z" />
<path d="M186.756 0.750813H185.418V0H188.952V0.750813H187.621V4.53205H186.759V0.750813H186.756Z" />
<path d="M190.027 0H191.232L192.164 2.3034C192.423 2.9455 192.527 3.33959 192.527 3.33959C192.527 3.33959 192.633 2.9455 192.896 2.3034L193.828 0H195.003V4.53205H194.141V2.3034C194.141 1.61034 194.167 1.19586 194.167 1.19586C194.167 1.19586 194.034 1.58996 193.775 2.22526L192.849 4.52866H192.19L191.265 2.22866C191.006 1.58656 190.879 1.19247 190.879 1.19247C190.879 1.19247 190.899 1.60694 190.899 2.3V4.52866H190.037V0H190.027Z" />
<path d="M140.158 31.9383V15.9776C140.158 10.7185 135.726 7.7832 128.417 7.7832C121.648 7.7832 116.976 10.5962 116.976 15.4884C116.976 18.0568 118.414 19.6467 120.87 19.6467C123.326 19.6467 124.943 18.0568 124.943 15.9776C124.943 15.1215 124.584 14.3876 123.805 13.4092C123.266 12.7977 123.146 12.3696 123.146 12.0027C123.146 10.535 124.883 9.74007 127.04 9.74007C130.574 9.74007 131.892 11.5135 131.892 15.4272V19.5856C124.943 21.6036 122.128 22.7043 119.851 24.2331C117.156 26.0677 115.838 28.3915 115.838 31.0822C115.838 35.6074 118.593 37.5643 122.427 37.5643C125.902 37.5643 128.657 36.4024 131.952 33.3448C131.952 35.9574 134.205 36.8305 137.213 36.8305C138.724 36.8305 140.158 36.8441 140.158 36.8441V31.9383ZM131.892 30.7764C130.574 32.6721 129.136 33.2225 127.699 33.2225C125.902 33.2225 124.584 31.816 124.584 29.1253C124.584 25.5785 127.1 23.0712 131.892 21.7259V30.7764Z" />
<path d="M159.627 7.91211C156.631 7.91211 154.355 9.50206 151.54 13.6604V8.64594H140.158V10.1136C142.734 10.4805 143.453 11.1532 143.453 14.0273V36.8371H156.092V35.3694C152.438 35.1248 151.779 34.2687 151.779 30.3549V19.531C151.779 15.923 153.337 13.1712 155.433 13.1712C155.913 13.1712 156.452 13.477 157.111 14.5777C158.129 16.29 159.147 16.9015 160.705 16.9015C162.921 16.9015 164.479 15.1892 164.479 12.7431C164.479 9.93013 162.442 7.91211 159.627 7.91211Z" />
</g>
<defs>
<clipPath id="clip0_401_11969">
<rect width="195" height="46" fill="white"/>
</clipPath>
</defs>
</svg>
