<svg width="34" height="31" viewBox="0 0 34 31" fill="none" xmlns="http://www.w3.org/2000/svg">
<path fill-rule="evenodd" clip-rule="evenodd" d="M17 2C12.0294 2 8 6.02944 8 11C8 15.9706 12.0294 20 17 20C21.9706 20 26 15.9706 26 11C26 6.02944 21.9706 2 17 2ZM6 11C6 4.92487 10.9249 0 17 0C23.0751 0 28 4.92487 28 11C28 17.0751 23.0751 22 17 22C10.9249 22 6 17.0751 6 11Z"/>
<path fill-rule="evenodd" clip-rule="evenodd" d="M17.0021 22C14.1055 22 11.2599 22.7622 8.75111 24.2101C6.24236 25.6581 4.15882 27.7407 2.7098 30.2488C2.43352 30.727 1.82188 30.8907 1.34367 30.6144C0.865454 30.3381 0.701755 29.7265 0.978036 29.2483C2.60264 26.4363 4.93864 24.1013 7.75136 22.4779C10.5641 20.8546 13.7545 20 17.0021 20C20.2496 20 23.44 20.8547 26.2527 22.4781C29.0654 24.1015 31.4014 26.4366 33.0259 29.2486C33.3022 29.7268 33.1385 30.3385 32.6603 30.6147C32.182 30.891 31.5704 30.7273 31.2941 30.2491C29.8452 27.7409 27.7617 25.6583 25.253 24.2103C22.7442 22.7623 19.8987 22 17.0021 22Z"/>
</svg>
