<svg width="18" height="18" viewBox="0 0 18 18" fill="red" xmlns="http://www.w3.org/2000/svg">
<path d="M8.60248 5.02242L9.9946 3.6303C10.2818 3.3428 10.6229 3.11471 10.9983 2.95906C11.3737 2.8034 11.7761 2.72324 12.1825 2.72314C12.5889 2.72305 12.9913 2.80303 13.3668 2.9585C13.7423 3.11398 14.0835 3.34192 14.3708 3.62928C14.6582 3.91665 14.8861 4.25782 15.0416 4.6333C15.1971 5.00878 15.2771 5.41122 15.277 5.81761C15.2769 6.22401 15.1967 6.62641 15.0411 7.00182C14.8854 7.37723 14.6573 7.71829 14.3698 8.00552L12.3811 9.99426C12.0938 10.2815 11.7527 10.5094 11.3774 10.6649C11.002 10.8204 10.5997 10.9004 10.1935 10.9004C9.78719 10.9004 9.38489 10.8204 9.00954 10.6649C8.63419 10.5094 8.29314 10.2815 8.00586 9.99426" stroke-linecap="round" stroke-linejoin="round"/>
<path d="M9.39715 12.9776L8.00504 14.3697C7.7178 14.6572 7.37674 14.8853 7.00133 15.041C6.62592 15.1966 6.22352 15.2768 5.81713 15.2769C5.41073 15.277 5.00829 15.197 4.63281 15.0415C4.25733 14.886 3.91616 14.6581 3.62879 14.3707C3.34143 14.0834 3.11349 13.7422 2.95802 13.3667C2.80254 12.9912 2.72256 12.5888 2.72266 12.1824C2.72275 11.776 2.80291 11.3736 2.95857 10.9982C3.11422 10.6228 3.34231 10.2817 3.62981 9.99449L5.61855 8.00575C5.90583 7.71847 6.24688 7.49058 6.62224 7.33511C6.99759 7.17963 7.39989 7.09961 7.80616 7.09961C8.21244 7.09961 8.61474 7.17963 8.99009 7.33511C9.36544 7.49058 9.70649 7.71847 9.99378 8.00575" stroke-linecap="round" stroke-linejoin="round"/>
</svg>
