<svg viewBox="0 0 40 40" fill="none" xmlns="http://www.w3.org/2000/svg">
<path d="M36 20.3571C36 19.0415 35.8911 18.0815 35.6553 17.0859H20.3262V23.0238H29.324C29.1427 24.4994 28.1631 26.7217 25.9861 28.215L25.9556 28.4138L30.8024 32.0935L31.1382 32.1263C34.2221 29.3351 36 25.2283 36 20.3571" />
<path d="M20.3237 36.0001C24.7319 36.0001 28.4326 34.5777 31.1357 32.1244L25.9836 28.213C24.6049 29.1553 22.7545 29.8131 20.3237 29.8131C16.0061 29.8131 12.3417 27.022 11.0354 23.1641L10.8439 23.18L5.80419 27.0024L5.73828 27.1819C8.42312 32.4087 13.938 36.0001 20.3237 36.0001Z" />
<path d="M11.0386 23.1651C10.694 22.1695 10.4945 21.1027 10.4945 20.0005C10.4945 18.8982 10.694 17.8316 11.0205 16.836L11.0114 16.624L5.90846 12.7402L5.7415 12.8181C4.63494 14.987 4 17.4227 4 20.0005C4 22.5784 4.63494 25.0139 5.7415 27.1829L11.0386 23.1651" />
<path d="M20.3237 10.1868C23.3895 10.1868 25.4576 11.4846 26.6368 12.5691L31.2446 8.1601C28.4147 5.58227 24.732 4 20.3237 4C13.938 4 8.42313 7.59117 5.73828 12.8179L11.0173 16.8359C12.3417 12.978 16.0062 10.1868 20.3237 10.1868" />
</svg>
