<svg viewBox="0 0 40 40" fill="none" xmlns="http://www.w3.org/2000/svg">
<path d="M27.9658 2.22266H12.0344C6.62422 2.22266 2.22266 6.62443 2.22266 12.0346V27.966C2.22266 33.3764 6.62422 37.778 12.0344 37.778H27.9658C33.3764 37.778 37.778 33.3762 37.778 27.966V12.0346C37.7782 6.62443 33.3764 2.22266 27.9658 2.22266ZM34.6235 27.966C34.6235 31.6369 31.6369 34.6233 27.966 34.6233H12.0344C8.36369 34.6235 5.3773 31.6369 5.3773 27.966V12.0346C5.3773 8.3639 8.36369 5.3773 12.0344 5.3773H27.9658C31.6367 5.3773 34.6233 8.3639 34.6233 12.0346V27.966H34.6235Z" />
<path d="M19.9996 10.8398C14.9478 10.8398 10.8379 14.9497 10.8379 20.0015C10.8379 25.0532 14.9478 29.1628 19.9996 29.1628C25.0514 29.1628 29.1613 25.0532 29.1613 20.0015C29.1613 14.9497 25.0514 10.8398 19.9996 10.8398ZM19.9996 26.008C16.6874 26.008 13.9925 23.3135 13.9925 20.0013C13.9925 16.689 16.6872 13.9943 19.9996 13.9943C23.312 13.9943 26.0067 16.689 26.0067 20.0013C26.0067 23.3135 23.3118 26.008 19.9996 26.008Z" />
<path d="M29.5458 8.16406C28.938 8.16406 28.341 8.41012 27.9117 8.84126C27.4804 9.27029 27.2324 9.86757 27.2324 10.4775C27.2324 11.0855 27.4806 11.6825 27.9117 12.1137C28.3408 12.5427 28.938 12.7909 29.5458 12.7909C30.1557 12.7909 30.7509 12.5427 31.182 12.1137C31.6132 11.6825 31.8592 11.0853 31.8592 10.4775C31.8592 9.86757 31.6132 9.27029 31.182 8.84126C30.753 8.41012 30.1557 8.16406 29.5458 8.16406Z" />
</svg>
