<svg viewBox="0 0 40 40" fill="none" xmlns="http://www.w3.org/2000/svg">
<path d="M39.9991 7.24224C38.5278 7.91355 36.9464 8.36705 35.2869 8.57108C36.9808 7.52669 38.2819 5.8729 38.8944 3.90217C37.3089 4.86943 35.5531 5.57159 33.6841 5.95002C32.1876 4.3098 30.0553 3.28516 27.6954 3.28516C23.1644 3.28516 19.4906 7.06352 19.4906 11.724C19.4906 12.3854 19.5631 13.0296 19.7031 13.6472C12.8842 13.2953 6.83868 9.93549 2.79195 4.82974C2.0857 6.0761 1.68098 7.52566 1.68098 9.0723C1.68098 12.0002 3.12947 14.5832 5.331 16.0965C3.98609 16.0527 2.72096 15.6731 1.6148 15.041C1.61387 15.0762 1.61387 15.1116 1.61387 15.1472C1.61387 19.2359 4.44206 22.6465 8.19545 23.4223C7.507 23.6152 6.78215 23.7183 6.03391 23.7183C5.50523 23.7183 4.99134 23.6652 4.49025 23.5669C5.53443 26.9195 8.56437 29.3594 12.1548 29.4272C9.3468 31.6909 5.80917 33.04 1.96499 33.04C1.30273 33.04 0.649675 32.9999 0.0078125 32.922C3.63883 35.3166 7.9515 36.7137 12.5849 36.7137C27.6763 36.7137 35.9291 23.8546 35.9291 12.7024C35.9291 12.3365 35.9211 11.9727 35.9053 11.6105C37.5081 10.4209 38.899 8.9347 39.999 7.24224H39.9991Z" />
</svg>
