<svg width="24" height="24" viewBox="0 0 24 24" fill="none" xmlns="http://www.w3.org/2000/svg">
<path d="M21.5996 12.2147C21.5996 11.4253 21.5343 10.8493 21.3928 10.252H12.1953V13.8147H17.594C17.4852 14.7001 16.8975 16.0334 15.5913 16.9294L15.573 17.0487L18.4811 19.2565L18.6825 19.2762C20.5329 17.6014 21.5996 15.1374 21.5996 12.2147Z" fill="#4285F4"/>
<path d="M12.1926 21.6C14.8376 21.6 17.058 20.7466 18.6798 19.2746L15.5886 16.9278C14.7614 17.4932 13.6511 17.8879 12.1926 17.8879C9.60212 17.8879 7.40345 16.2132 6.61969 13.8984L6.50481 13.908L3.48095 16.2014L3.44141 16.3091C5.05231 19.4452 8.36123 21.6 12.1926 21.6Z" fill="#34A853"/>
<path d="M6.62163 13.8994C6.41482 13.3021 6.29514 12.662 6.29514 12.0007C6.29514 11.3393 6.41482 10.6993 6.61075 10.102L6.60527 9.97477L3.54351 7.64453L3.44334 7.69123C2.7794 8.99261 2.39844 10.454 2.39844 12.0007C2.39844 13.5474 2.7794 15.0087 3.44334 16.3101L6.62163 13.8994Z" fill="#FBBC05"/>
<path d="M12.1927 6.11246C14.0322 6.11246 15.273 6.89114 15.9805 7.54187L18.7452 4.89645C17.0473 3.34975 14.8376 2.40039 12.1927 2.40039C8.36126 2.40039 5.05232 4.55509 3.44141 7.69115L6.60883 10.1019C7.40348 7.78719 9.60216 6.11246 12.1927 6.11246Z" fill="#EB4335"/>
</svg>
